<svg width="25" height="30" viewBox="0 0 25 30" fill="none" xmlns="http://www.w3.org/2000/svg">
<g clip-path="url(#clip0)">
<path d="M5.52285 25.4573H0.40755V8.81821H5.52285V25.4573ZM2.96244 6.54849C1.32674 6.54849 0 5.17998 0 3.52776C1.17077e-08 2.73414 0.312114 1.97302 0.86768 1.41184C1.42325 0.850666 2.17676 0.5354 2.96244 0.5354C3.74813 0.5354 4.50164 0.850666 5.05721 1.41184C5.61277 1.97302 5.92489 2.73414 5.92489 3.52776C5.92489 5.17998 4.5976 6.54849 2.96244 6.54849ZM24.6678 25.4573H19.5635V17.3575C19.5635 15.4271 19.5249 12.9515 16.9039 12.9515C14.2444 12.9515 13.8369 15.0488 13.8369 17.2184V25.4573H8.72707V8.81821H13.6331V11.0879H13.7047C14.3876 9.78061 16.0558 8.40098 18.5446 8.40098C23.7216 8.40098 24.6733 11.8445 24.6733 16.3172V25.4573H24.6678Z" fill="white"/>
</g>
<defs>
<clipPath id="clip0">
<rect width="24.6733" height="28.4828" fill="white" transform="translate(0 0.534424)"/>
</clipPath>
</defs>
</svg>
