<svg width="28" height="30" viewBox="0 0 28 30" fill="none" xmlns="http://www.w3.org/2000/svg">
<g clip-path="url(#clip0)">
<path d="M9.08714 22.642C9.08714 22.7532 8.96116 22.8422 8.80232 22.8422C8.62156 22.8589 8.49558 22.7699 8.49558 22.642C8.49558 22.5307 8.62156 22.4417 8.78041 22.4417C8.94473 22.425 9.08714 22.514 9.08714 22.642ZM7.38365 22.3916C7.34531 22.5029 7.45486 22.6308 7.61918 22.6642C7.76159 22.7198 7.92592 22.6642 7.95878 22.553C7.99165 22.4417 7.88758 22.3137 7.72325 22.2637C7.58084 22.2247 7.42199 22.2804 7.38365 22.3916ZM9.8047 22.2971C9.64585 22.336 9.5363 22.4417 9.55273 22.5696C9.56916 22.6809 9.71158 22.7532 9.8759 22.7143C10.0347 22.6753 10.1443 22.5696 10.1279 22.4584C10.1114 22.3527 9.96354 22.2804 9.8047 22.2971ZM13.4089 0.979492C5.81161 0.979492 0 6.83737 0 14.5533C0 20.7227 3.82328 26.002 9.28433 27.8601C9.98545 27.988 10.2319 27.5486 10.2319 27.187C10.2319 26.8421 10.2155 24.9395 10.2155 23.7713C10.2155 23.7713 6.38127 24.6057 5.57608 22.1135C5.57608 22.1135 4.95164 20.4946 4.05334 20.0774C4.05334 20.0774 2.79899 19.204 4.14098 19.2207C4.14098 19.2207 5.50487 19.332 6.25529 20.656C7.45485 22.8033 9.46509 22.1858 10.2484 21.8186C10.3744 20.9286 10.7304 20.3111 11.1248 19.9439C8.06286 19.599 4.97356 19.1484 4.97356 13.7967C4.97356 12.2669 5.38984 11.4992 6.26624 10.5201C6.12383 10.1585 5.65824 8.66761 6.40866 6.7428C7.55345 6.3812 10.1881 8.24482 10.1881 8.24482C11.2836 7.93329 12.4613 7.77196 13.628 7.77196C14.7947 7.77196 15.9723 7.93329 17.0678 8.24482C17.0678 8.24482 19.7025 6.37564 20.8473 6.7428C21.5977 8.67317 21.1321 10.1585 20.9897 10.5201C21.8661 11.5048 22.4029 12.2725 22.4029 13.7967C22.4029 19.1651 19.1767 19.5934 16.1148 19.9439C16.6187 20.3834 17.0459 21.2178 17.0459 22.5251C17.0459 24.3999 17.0295 26.7197 17.0295 27.1758C17.0295 27.5374 17.2815 27.9769 17.9771 27.849C23.4546 26.002 27.1683 20.7227 27.1683 14.5533C27.1683 6.83737 21.0061 0.979492 13.4089 0.979492ZM5.32411 20.1664C5.25291 20.222 5.26934 20.35 5.36246 20.4557C5.4501 20.5447 5.57608 20.5836 5.64729 20.5113C5.71849 20.4557 5.70206 20.3277 5.60894 20.222C5.5213 20.133 5.39532 20.0941 5.32411 20.1664ZM4.73255 19.7158C4.6942 19.7881 4.74898 19.8771 4.85853 19.9328C4.94617 19.9884 5.05572 19.9717 5.09406 19.8938C5.1324 19.8215 5.07763 19.7325 4.96808 19.6769C4.85853 19.6435 4.77089 19.6602 4.73255 19.7158ZM6.50725 21.6962C6.41961 21.7686 6.45248 21.9355 6.57846 22.0412C6.70444 22.1691 6.86329 22.1858 6.93449 22.0968C7.0057 22.0245 6.97284 21.8576 6.86329 21.7519C6.74278 21.6239 6.57846 21.6072 6.50725 21.6962ZM5.88282 20.8785C5.79518 20.9341 5.79518 21.0788 5.88282 21.2067C5.97046 21.3347 6.11835 21.3903 6.18956 21.3347C6.2772 21.2623 6.2772 21.1177 6.18956 20.9897C6.11287 20.8618 5.97046 20.8062 5.88282 20.8785Z" fill="white"/>
</g>
<defs>
<clipPath id="clip0">
<rect width="27.1683" height="28.4828" fill="white" transform="translate(0 0.534424)"/>
</clipPath>
</defs>
</svg>
