<svg width="25" height="31" viewBox="0 0 25 31" fill="none" xmlns="http://www.w3.org/2000/svg">
<g clip-path="url(#clip0)">
<path d="M12.2036 8.74492C8.74026 8.74492 5.9467 11.7322 5.9467 15.4356C5.9467 19.1391 8.74026 22.1264 12.2036 22.1264C15.667 22.1264 18.4605 19.1391 18.4605 15.4356C18.4605 11.7322 15.667 8.74492 12.2036 8.74492ZM12.2036 19.7855C9.96551 19.7855 8.13581 17.8347 8.13581 15.4356C8.13581 13.0365 9.96006 11.0858 12.2036 11.0858C14.4472 11.0858 16.2714 13.0365 16.2714 15.4356C16.2714 17.8347 14.4417 19.7855 12.2036 19.7855ZM20.1759 8.47124C20.1759 9.33887 19.5224 10.0318 18.7165 10.0318C17.9051 10.0318 17.2571 9.33305 17.2571 8.47124C17.2571 7.60942 17.9105 6.91065 18.7165 6.91065C19.5224 6.91065 20.1759 7.60942 20.1759 8.47124ZM24.3199 10.0551C24.2274 7.96463 23.7808 6.11289 22.3487 4.58724C20.9219 3.06159 19.1902 2.5841 17.2353 2.47929C15.2204 2.357 9.18135 2.357 7.1665 2.47929C5.217 2.57828 3.48532 3.05577 2.05314 4.58142C0.620969 6.10706 0.179881 7.9588 0.0818609 10.0493C-0.0324953 12.2038 -0.0324953 18.6616 0.0818609 20.8162C0.174435 22.9066 0.620969 24.7584 2.05314 26.284C3.48532 27.8097 5.21155 28.2872 7.1665 28.392C9.18135 28.5143 15.2204 28.5143 17.2353 28.392C19.1902 28.293 20.9219 27.8155 22.3487 26.284C23.7754 24.7584 24.2219 22.9066 24.3199 20.8162C24.4343 18.6616 24.4343 12.2097 24.3199 10.0551ZM21.717 23.1279C21.2922 24.2692 20.4699 25.1485 19.3972 25.6086C17.7907 26.2899 13.9789 26.1326 12.2036 26.1326C10.4284 26.1326 6.61106 26.284 5.01007 25.6086C3.94274 25.1544 3.12047 24.2751 2.69027 23.1279C2.05314 21.4101 2.20017 17.334 2.20017 15.4356C2.20017 13.5373 2.05859 9.45534 2.69027 7.74335C3.11502 6.60203 3.9373 5.72274 5.01007 5.26272C6.6165 4.58142 10.4284 4.73864 12.2036 4.73864C13.9789 4.73864 17.7962 4.58724 19.3972 5.26272C20.4645 5.71692 21.2868 6.5962 21.717 7.74335C22.3541 9.46116 22.2071 13.5373 22.2071 15.4356C22.2071 17.334 22.3541 21.4159 21.717 23.1279Z" fill="white"/>
</g>
<defs>
<clipPath id="clip0">
<rect width="24.396" height="29.8142" fill="white" transform="translate(0 0.534424)"/>
</clipPath>
</defs>
</svg>
