<svg width="32" height="30" viewBox="0 0 32 30" fill="none" xmlns="http://www.w3.org/2000/svg">
<path d="M29.7687 7.08218C29.9708 6.3868 29.7687 5.875 28.7965 5.875H25.5793C24.76 5.875 24.3831 6.31448 24.181 6.80403C24.181 6.80403 22.5423 10.8706 20.2264 13.5075C19.4781 14.2696 19.134 14.5144 18.7243 14.5144C18.5222 14.5144 18.2109 14.2696 18.2109 13.5742V7.08218C18.2109 6.24772 17.9815 5.875 17.3042 5.875H12.2462C11.7328 5.875 11.4269 6.26441 11.4269 6.62601C11.4269 7.41596 12.5849 7.59954 12.7051 9.82476V14.6535C12.7051 15.7105 12.5193 15.9052 12.1097 15.9052C11.0173 15.9052 8.36267 11.8219 6.78958 7.14894C6.47277 6.24216 6.16143 5.875 5.33665 5.875H2.11946C1.20183 5.875 1.01611 6.31448 1.01611 6.80403C1.01611 7.67186 2.10854 11.9832 6.10135 17.6798C8.7614 21.5683 12.5084 23.6767 15.9168 23.6767C17.9651 23.6767 18.2163 23.2094 18.2163 22.4028C18.2163 18.6867 18.0306 18.3362 19.0575 18.3362C19.5327 18.3362 20.352 18.581 22.2638 20.4557C24.4486 22.6809 24.8091 23.6767 26.0326 23.6767H29.2498C30.1675 23.6767 30.6317 23.2094 30.3641 22.286C29.7523 20.3445 25.6175 16.3502 25.4318 16.0832C24.9566 15.4601 25.0931 15.182 25.4318 14.6257C25.4373 14.6201 29.3645 8.9903 29.7687 7.08218Z" fill="white"/>
</svg>
